<?xml version="1.0" encoding="UTF-8" standalone="no"?>
<!-- Created with Inkscape (http://www.inkscape.org/) -->

<svg
   xmlns:dc="http://purl.org/dc/elements/1.1/"
   xmlns:cc="http://creativecommons.org/ns#"
   xmlns:rdf="http://www.w3.org/1999/02/22-rdf-syntax-ns#"
   xmlns:svg="http://www.w3.org/2000/svg"
   xmlns="http://www.w3.org/2000/svg"
   xmlns:sodipodi="http://sodipodi.sourceforge.net/DTD/sodipodi-0.dtd"
   xmlns:inkscape="http://www.inkscape.org/namespaces/inkscape"
   width="210mm"
   height="297mm"
   viewBox="0 0 744.09448819 1052.3622047"
   id="svg2"
   version="1.1"
   inkscape:version="0.91 r13725"
   sodipodi:docname="AllCharactersAsPathsSingleOrigin.svg">
  <defs
     id="defs4" />
  <sodipodi:namedview
     id="base"
     pagecolor="#ffffff"
     bordercolor="#666666"
     borderopacity="1.0"
     inkscape:pageopacity="0.0"
     inkscape:pageshadow="2"
     inkscape:zoom="1"
     inkscape:cx="316.94357"
     inkscape:cy="99.28864"
     inkscape:document-units="px"
     inkscape:current-layer="layer1"
     showgrid="false"
     inkscape:window-width="1706"
     inkscape:window-height="1001"
     inkscape:window-x="182"
     inkscape:window-y="0"
     inkscape:window-maximized="0"
     showguides="true" />
  <metadata
     id="metadata7">
    <rdf:RDF>
      <cc:Work
         rdf:about="">
        <dc:format>image/svg+xml</dc:format>
        <dc:type
           rdf:resource="http://purl.org/dc/dcmitype/StillImage" />
        <dc:title></dc:title>
      </cc:Work>
    </rdf:RDF>
  </metadata>
  <g
     inkscape:label="Layer 1"
     inkscape:groupmode="layer"
     id="layer1">
    <g
       style="font-style:normal;font-variant:normal;font-weight:normal;font-stretch:normal;font-size:180px;line-height:100%;font-family:LilGrotesk;-inkscape-font-specification:'LilGrotesk, Normal';text-align:start;letter-spacing:0px;word-spacing:0px;writing-mode:lr-tb;text-anchor:start;fill:#000000;fill-opacity:1;stroke:none;stroke-width:1px;stroke-linecap:butt;stroke-linejoin:miter;stroke-opacity:1"
       id="text3335"
       transform="matrix(0.63969109,0,0,1.0123735,-16.030659,896.08999)">
      <path
         d="m 52.42,154.36221 14.04,-35.82 39.06,0 14.04,35.82 27.36,0 -49.32,-125.999997 -23.22,0 -49.32,125.999997 27.36,0 z m 23.4,-59.579997 10.26,-26.28 10.26,26.28 -20.52,0 z"
         id="path3388"
         inkscape:connector-curvature="0" />
    </g>
    <g
       style="font-style:normal;font-variant:normal;font-weight:normal;font-stretch:normal;font-size:180px;line-height:100%;font-family:LilGrotesk;-inkscape-font-specification:'LilGrotesk, Normal';text-align:start;letter-spacing:0px;word-spacing:0px;writing-mode:lr-tb;text-anchor:start;fill:#000000;fill-opacity:1;stroke:none;stroke-width:1px;stroke-linecap:butt;stroke-linejoin:miter;stroke-opacity:1"
       id="text3335-1"
       transform="matrix(0.85082685,0,0,1.0123734,-160.61909,896.09002)">
      <path
         d="m 188.78,28.362198 0,126.000002 48.42,0 c 24.66,0 43.2,-18.9 43.2,-41.76 0,-14.220002 -7.38,-26.820002 -18.54,-34.560002 2.88,-4.86 4.5,-10.62 4.5,-16.56 0,-18.18 -14.94,-33.12 -33.48,-33.12 l -44.1,0 z m 25.74,42.3 0,-18.54 18.36,0 c 3.96,0 7.74,3.78 7.74,9.36 0,5.4 -3.6,9.18 -7.56,9.18 l -18.54,0 z m 0,59.940002 0,-36.000002 23.04,0 c 9.36,0 17.1,7.740002 17.1,18.000002 0,12.24 -8.64,17.64 -22.68,18 l -17.46,0 z"
         id="path3391"
         inkscape:connector-curvature="0" />
    </g>
    <g
       style="font-style:normal;font-variant:normal;font-weight:normal;font-stretch:normal;font-size:180px;line-height:100%;font-family:LilGrotesk;-inkscape-font-specification:'LilGrotesk, Normal';text-align:start;letter-spacing:0px;word-spacing:0px;writing-mode:lr-tb;text-anchor:start;fill:#000000;fill-opacity:1;stroke:none;stroke-width:1px;stroke-linecap:butt;stroke-linejoin:miter;stroke-opacity:1"
       id="text3335-3"
       transform="matrix(0.69070314,0,0,1.0080532,-220.22379,896.39397)">
      <path
         d="m 410.82,109.72223 c -7.92,14.04 -18.18,21.24 -31.32,21.24 -18.54,0 -34.92,-17.28 -34.92,-39.600002 0,-20.52 14.76,-39.42 34.92,-39.42 12.42,0 22.14,6.3 30.24,19.08 l 19.98,-14.94 c -9.54,-15.84 -29.52,-27.9 -50.22,-27.9 -37.08,0 -60.66,31.68 -60.66,63.18 0,34.740002 27,63.360002 60.66,63.360002 22.14,0 42.84,-13.68 52.2,-31.32 l -20.88,-13.68 z"
         id="path3394"
         inkscape:connector-curvature="0" />
    </g>
    <g
       style="font-style:normal;font-variant:normal;font-weight:normal;font-stretch:normal;font-size:180px;line-height:100%;font-family:LilGrotesk;-inkscape-font-specification:'LilGrotesk, Normal';text-align:start;letter-spacing:0px;word-spacing:0px;writing-mode:lr-tb;text-anchor:start;fill:#000000;fill-opacity:1;stroke:none;stroke-width:1px;stroke-linecap:butt;stroke-linejoin:miter;stroke-opacity:1"
       id="text3335-1-9"
       transform="matrix(0.83123007,0,0,1.0123734,-394.3023,896.09002)">
      <path
         d="m 474.36,28.362198 0,126.000002 30.06,0 c 42.66,0 63.72,-27.54 63.72,-63.000002 0,-35.64 -19.62,-63 -64.62,-63 l -29.16,0 z m 25.74,102.240002 0,-78.480002 3.42,0 c 28.08,0 38.88,14.04 38.88,39.24 0,24.660002 -11.7,39.240002 -37.98,39.240002 l -4.32,0 z"
         id="path3397"
         inkscape:connector-curvature="0" />
    </g>
    <g
       style="font-style:normal;font-variant:normal;font-weight:normal;font-stretch:normal;font-size:180px;line-height:100%;font-family:LilGrotesk;-inkscape-font-specification:'LilGrotesk, Normal';text-align:start;letter-spacing:0px;word-spacing:0px;writing-mode:lr-tb;text-anchor:start;fill:#000000;fill-opacity:1;stroke:none;stroke-width:1px;stroke-linecap:butt;stroke-linejoin:miter;stroke-opacity:1"
       id="text3335-1-9-3"
       transform="matrix(0.89292962,0,0,1.0123734,-541.65111,896.09002)">
      <path
         d="m 606.6,154.3622 87.3,0 0,-23.76 -61.56,0 0,-27.9 49.5,0 0,-23.760002 -49.5,0 0,-26.82 61.38,0 0,-23.76 -87.12,0 0,126.000002 z"
         id="path3400"
         inkscape:connector-curvature="0" />
    </g>
    <g
       style="font-style:normal;font-variant:normal;font-weight:normal;font-stretch:normal;font-size:180px;line-height:100%;font-family:LilGrotesk;-inkscape-font-specification:'LilGrotesk, Normal';text-align:start;letter-spacing:0px;word-spacing:0px;writing-mode:lr-tb;text-anchor:start;fill:#000000;fill-opacity:1;stroke:none;stroke-width:1px;stroke-linecap:butt;stroke-linejoin:miter;stroke-opacity:1"
       id="text3335-4"
       transform="matrix(0.92734661,0,0,1.0109293,-31.752348,746.69542)">
      <path
         d="m 106.24,226.76218 -46.26,0 0,-26.82 58.32,0 0,-23.76 -84.06,0 0,126.18 25.74,0 0,-51.84 46.26,0 0,-23.76 z"
         id="path3403"
         inkscape:connector-curvature="0" />
    </g>
    <g
       style="font-style:normal;font-variant:normal;font-weight:normal;font-stretch:normal;font-size:180px;line-height:100%;font-family:LilGrotesk;-inkscape-font-specification:'LilGrotesk, Normal';text-align:start;letter-spacing:0px;word-spacing:0px;writing-mode:lr-tb;text-anchor:start;fill:#000000;fill-opacity:1;stroke:none;stroke-width:1px;stroke-linecap:butt;stroke-linejoin:miter;stroke-opacity:1"
       id="text3335-1-0"
       transform="matrix(0.70532714,0,0,1.0080532,-127.69243,747.20214)">
      <path
         d="m 291.56,232.52218 -55.98,0 0,23.76 30.42,0 0,11.52 c -7.2,7.92 -15.3,11.16 -24.3,11.16 -18.54,0 -34.92,-17.28 -34.92,-39.6 0,-22.32 16.38,-39.42 34.92,-39.42 10.8,0 19.62,4.86 27.9,15.12 l 18,-16.92 c -9.72,-12.6 -27.72,-21.96 -45.9,-21.96 -33.66,0 -60.66,28.44 -60.66,63.18 0,34.74 27,63.36 60.66,63.36 18.18,0 38.34,-9.54 49.86,-27.36 l 0,-42.84 z"
         id="path3406"
         inkscape:connector-curvature="0" />
    </g>
    <g
       style="font-style:normal;font-variant:normal;font-weight:normal;font-stretch:normal;font-size:180px;line-height:100%;font-family:LilGrotesk;-inkscape-font-specification:'LilGrotesk, Normal';text-align:start;letter-spacing:0px;word-spacing:0px;writing-mode:lr-tb;text-anchor:start;fill:#000000;fill-opacity:1;stroke:none;stroke-width:1px;stroke-linecap:butt;stroke-linejoin:miter;stroke-opacity:1"
       id="text3335-3-3"
       transform="matrix(0.75844285,0,0,1.0123735,-246.87315,746.25875)">
      <path
         d="m 402.54,302.36218 25.74,0 0,-126 -25.74,0 0,50.58 -51.3,0 0,-50.58 -25.74,0 0,126 25.74,0 0,-51.66 51.3,0 0,51.66 z"
         id="path3409"
         inkscape:connector-curvature="0" />
    </g>
    <g
       style="font-style:normal;font-variant:normal;font-weight:normal;font-stretch:normal;font-size:180px;line-height:100%;font-family:LilGrotesk;-inkscape-font-specification:'LilGrotesk, Normal';text-align:start;letter-spacing:0px;word-spacing:0px;writing-mode:lr-tb;text-anchor:start;fill:#000000;fill-opacity:1;stroke:none;stroke-width:1px;stroke-linecap:butt;stroke-linejoin:miter;stroke-opacity:1"
       id="text3335-1-9-36"
       transform="matrix(1.1012609,0,0,1.0123735,-517.8349,746.25875)">
      <path
         d="m 470.22,302.36218 25.74,0 0,-126 -25.74,0 0,126 z"
         id="path3412"
         inkscape:connector-curvature="0" />
    </g>
    <g
       style="font-style:normal;font-variant:normal;font-weight:normal;font-stretch:normal;font-size:180px;line-height:100%;font-family:LilGrotesk;-inkscape-font-specification:'LilGrotesk, Normal';text-align:start;letter-spacing:0px;word-spacing:0px;writing-mode:lr-tb;text-anchor:start;fill:#000000;fill-opacity:1;stroke:none;stroke-width:1px;stroke-linecap:butt;stroke-linejoin:miter;stroke-opacity:1"
       id="text3335-1-9-3-0"
       transform="matrix(1.0754853,0,0,1.0080532,-647.03348,747.20214)">
      <path
         d="m 674.1,176.18218 -25.92,0 0,88.74 c 0.18,10.62 -4.86,14.04 -10.26,14.04 -7.2,0 -13.68,-8.64 -9.18,-18.9 l -26.46,0 c -4.32,22.68 13.14,42.66 35.64,42.66 20.16,0 36.36,-16.2 36.18,-35.82 l 0,-90.72 z"
         id="path3415"
         inkscape:connector-curvature="0" />
    </g>
    <g
       style="font-style:normal;font-variant:normal;font-weight:normal;font-stretch:normal;font-size:180px;line-height:100%;font-family:LilGrotesk;-inkscape-font-specification:'LilGrotesk, Normal';text-align:start;letter-spacing:0px;word-spacing:0px;writing-mode:lr-tb;text-anchor:start;fill:#000000;fill-opacity:1;stroke:none;stroke-width:1px;stroke-linecap:butt;stroke-linejoin:miter;stroke-opacity:1"
       id="text3335-43"
       transform="matrix(0.70763213,0,0,1.0094892,-25.248314,597.72645)">
      <path
         d="m 61.42,450.36218 0,-51.48 7.56,-7.02 45,58.5 31.86,0 -58.5,-75.6 53.82,-50.4 -36.18,0 -43.56,40.86 0,-41.22 -25.74,0 0,126.36 25.74,0 z"
         id="path3418"
         inkscape:connector-curvature="0" />
    </g>
    <g
       style="font-style:normal;font-variant:normal;font-weight:normal;font-stretch:normal;font-size:180px;line-height:100%;font-family:LilGrotesk;-inkscape-font-specification:'LilGrotesk, Normal';text-align:start;letter-spacing:0px;word-spacing:0px;writing-mode:lr-tb;text-anchor:start;fill:#000000;fill-opacity:1;stroke:none;stroke-width:1px;stroke-linecap:butt;stroke-linejoin:miter;stroke-opacity:1"
       id="text3335-1-00"
       transform="matrix(1.1104381,0,0,1.0123735,-212.02705,596.42747)">
      <path
         d="m 190.94,324.36218 0,126 70.2,0 0,-23.76 -44.46,0 0,-102.24 -25.74,0 z"
         id="path3421"
         inkscape:connector-curvature="0" />
    </g>
    <g
       style="font-style:normal;font-variant:normal;font-weight:normal;font-stretch:normal;font-size:180px;line-height:100%;font-family:LilGrotesk;-inkscape-font-specification:'LilGrotesk, Normal';text-align:start;letter-spacing:0px;word-spacing:0px;writing-mode:lr-tb;text-anchor:start;fill:#000000;fill-opacity:1;stroke:none;stroke-width:1px;stroke-linecap:butt;stroke-linejoin:miter;stroke-opacity:1"
       id="text3335-3-2"
       transform="matrix(0.62312355,0,0,1.0066213,-203.72401,598.29327)">
      <path
         d="m 452.04,324.36218 -23.76,0 -38.88,72.9 -38.7,-72.9 -23.76,0 0,126 25.74,0 0,-68.58 36.72,69.3 36.9,-69.12 0,68.4 25.74,0 0,-126 z"
         id="path3424"
         inkscape:connector-curvature="0" />
    </g>
    <g
       style="font-style:normal;font-variant:normal;font-weight:normal;font-stretch:normal;font-size:180px;line-height:100%;font-family:LilGrotesk;-inkscape-font-specification:'LilGrotesk, Normal';text-align:start;letter-spacing:0px;word-spacing:0px;writing-mode:lr-tb;text-anchor:start;fill:#000000;fill-opacity:1;stroke:none;stroke-width:1px;stroke-linecap:butt;stroke-linejoin:miter;stroke-opacity:1"
       id="text3335-1-9-9"
       transform="matrix(0.75447886,0,0,1.0123735,-354.22782,596.42747)">
      <path
         d="m 495.24,371.70218 54.18,78.66 23.4,0 0,-126 -25.74,0 0,78.3 -53.82,-78.3 -23.76,0 0,126 25.74,0 0,-78.66 z"
         id="path3427"
         inkscape:connector-curvature="0" />
    </g>
    <g
       style="font-style:normal;font-variant:normal;font-weight:normal;font-stretch:normal;font-size:180px;line-height:100%;font-family:LilGrotesk;-inkscape-font-specification:'LilGrotesk, Normal';text-align:start;letter-spacing:0px;word-spacing:0px;writing-mode:lr-tb;text-anchor:start;fill:#000000;fill-opacity:1;stroke:none;stroke-width:1px;stroke-linecap:butt;stroke-linejoin:miter;stroke-opacity:1"
       id="text3335-1-9-3-7"
       transform="matrix(0.61168201,0,0,1.0094892,-368.29374,597.72645)">
      <path
         d="m 665.82,324.00218 c -36,0 -63.72,28.8 -63.72,63.18 0,34.74 28.44,63.18 63.72,63.18 30.6,0 63.72,-23.4 63.72,-63.18 0,-34.92 -28.44,-63.18 -63.72,-63.18 z m 0,23.76 c 20.52,0 37.98,17.28 37.98,39.42 0,24.66 -19.62,39.42 -37.98,39.42 -20.7,0 -37.98,-17.46 -37.98,-39.42 0,-21.78 17.1,-39.42 37.98,-39.42 z"
         id="path3430"
         inkscape:connector-curvature="0" />
    </g>
    <g
       style="font-style:normal;font-variant:normal;font-weight:normal;font-stretch:normal;font-size:180px;line-height:100%;font-family:LilGrotesk;-inkscape-font-specification:'LilGrotesk, Normal';text-align:start;letter-spacing:0px;word-spacing:0px;writing-mode:lr-tb;text-anchor:start;fill:#000000;fill-opacity:1;stroke:none;stroke-width:1px;stroke-linecap:butt;stroke-linejoin:miter;stroke-opacity:1"
       id="text3335-4-6"
       transform="matrix(0.89848727,0,0,1.0037697,-31.896298,451.74438)">
      <path
         d="m 35.5,471.28218 0,127.08 25.74,0 0,-51.84 22.68,0 c 21.24,0 38.34,-17.1 38.34,-37.62 0,-9.72 -4.5,-19.98 -11.16,-26.64 -6.3,-6.3 -16.92,-10.98 -27.18,-10.98 l -48.42,0 z m 25.74,51.48 0,-27.72 22.68,0 c 3.6,0 5.76,0.9 9,3.96 1.98,2.16 3.6,5.76 3.6,9.9 0,8.1 -5.76,13.86 -12.6,13.86 l -22.68,0 z"
         id="path3433"
         inkscape:connector-curvature="0" />
    </g>
    <g
       style="font-style:normal;font-variant:normal;font-weight:normal;font-stretch:normal;font-size:180px;line-height:100%;font-family:LilGrotesk;-inkscape-font-specification:'LilGrotesk, Normal';text-align:start;letter-spacing:0px;word-spacing:0px;writing-mode:lr-tb;text-anchor:start;fill:#000000;fill-opacity:1;stroke:none;stroke-width:1px;stroke-linecap:butt;stroke-linejoin:miter;stroke-opacity:1"
       id="text3335-1-0-1"
       transform="matrix(0.56389436,0,0,1.0094892,-103.71145,447.95863)">
      <path
         d="m 285.62,598.36218 36.54,0 -24.84,-22.86 c 8.46,-10.26 14.04,-23.76 14.04,-39.96 0,-34.74 -28.44,-63.18 -63.72,-63.18 -36,0 -63.72,28.98 -63.72,63.18 0,34.74 28.44,63.18 63.72,63.18 10.26,0 20.7,-2.52 30.24,-7.56 l 7.74,7.2 z m -20.34,-52.56 -36.36,0 29.7,27.54 c -3.6,1.08 -7.38,1.62 -10.98,1.62 -20.7,0 -37.98,-17.46 -37.98,-39.42 0,-21.78 17.1,-39.42 37.98,-39.42 20.52,0 37.98,17.46 37.98,39.42 0,9 -2.7,16.74 -6.84,22.86 l -13.5,-12.6 z"
         id="path3436"
         inkscape:connector-curvature="0" />
    </g>
    <g
       style="font-style:normal;font-variant:normal;font-weight:normal;font-stretch:normal;font-size:180px;line-height:100%;font-family:LilGrotesk;-inkscape-font-specification:'LilGrotesk, Normal';text-align:start;letter-spacing:0px;word-spacing:0px;writing-mode:lr-tb;text-anchor:start;fill:#000000;fill-opacity:1;stroke:none;stroke-width:1px;stroke-linecap:butt;stroke-linejoin:miter;stroke-opacity:1"
       id="text3335-3-3-8"
       transform="matrix(0.7278502,0,0,1.0037697,-237.17727,451.74438)">
      <path
         d="m 366.54,540.04218 36.54,58.32 29.88,0 -38.34,-61.2 c 12.42,-5.4 21.06,-17.64 21.06,-31.5 0,-18.72 -14.4,-34.38 -37.26,-34.38 l -52.56,0 0,127.08 25.74,0 0,-58.32 14.94,0 z m -14.94,-23.94 0,-21.06 27.36,0 c 6.12,0 11.52,3.78 11.52,10.44 0,6.84 -3.6,10.62 -11.16,10.62 l -27.72,0 z"
         id="path3439"
         inkscape:connector-curvature="0" />
    </g>
    <g
       style="font-style:normal;font-variant:normal;font-weight:normal;font-stretch:normal;font-size:180px;line-height:100%;font-family:LilGrotesk;-inkscape-font-specification:'LilGrotesk, Normal';text-align:start;letter-spacing:0px;word-spacing:0px;writing-mode:lr-tb;text-anchor:start;fill:#000000;fill-opacity:1;stroke:none;stroke-width:1px;stroke-linecap:butt;stroke-linejoin:miter;stroke-opacity:1"
       id="text3335-1-9-36-2"
       transform="matrix(0.89108147,0,0,1.00235,-407.29552,452.23303)">
      <path
         d="m 540.6,491.26218 c -7.56,-10.44 -18.9,-19.8 -39.06,-19.8 -19.44,0 -37.08,14.4 -37.08,34.56 0,21.6 19.44,30.42 32.4,35.64 14.22,5.94 22.14,9.18 22.14,19.98 0,8.64 -6.66,13.14 -18.54,13.14 -12.6,0 -19.8,-7.2 -24.66,-14.76 l -18.72,15.3 c 0.9,5.76 19.08,23.4 43.38,23.4 21.6,0 44.28,-12.06 44.1,-37.08 0,-26.82 -20.34,-34.74 -37.98,-41.94 -11.88,-4.86 -16.38,-7.56 -16.38,-13.68 0,-6.48 4.86,-10.8 11.34,-10.8 11.16,0 15.66,5.58 21.42,12.24 l 17.64,-16.2 z"
         id="path3442"
         inkscape:connector-curvature="0" />
    </g>
    <g
       style="font-style:normal;font-variant:normal;font-weight:normal;font-stretch:normal;font-size:180px;line-height:100%;font-family:LilGrotesk;-inkscape-font-specification:'LilGrotesk, Normal';text-align:start;letter-spacing:0px;word-spacing:0px;writing-mode:lr-tb;text-anchor:start;fill:#000000;fill-opacity:1;stroke:none;stroke-width:1px;stroke-linecap:butt;stroke-linejoin:miter;stroke-opacity:1"
       id="text3335-1-9-3-0-1"
       transform="matrix(0.81711484,0,0,1.0123735,-487.27826,446.59619)">
      <path
         d="m 657,598.36218 0,-102.24 34.74,0 0,-23.76 -95.4,0 0,23.76 34.92,0 0,102.24 25.74,0 z"
         id="path3445"
         inkscape:connector-curvature="0" />
    </g>
    <g
       style="font-style:normal;font-variant:normal;font-weight:normal;font-stretch:normal;font-size:180px;line-height:100%;font-family:LilGrotesk;-inkscape-font-specification:'LilGrotesk, Normal';text-align:start;letter-spacing:0px;word-spacing:0px;writing-mode:lr-tb;text-anchor:start;fill:#000000;fill-opacity:1;stroke:none;stroke-width:1px;stroke-linecap:butt;stroke-linejoin:miter;stroke-opacity:1"
       id="text3335-4-6-2"
       transform="matrix(0.78439917,0,0,1.0009342,-26.708227,301.67939)">
      <path
         d="m 59.8,622.54218 -25.74,0 0,75.78 c 0,-0.18 -1.98,49.86 47.88,51.66 l 3.6,0 c 49.68,-1.8 47.88,-51.84 47.88,-51.84 l 0,-75.6 -25.74,0 0,79.02 c -0.72,7.38 -3.78,23.76 -22.68,24.66 l -2.52,0 c -21.78,-1.08 -22.68,-22.68 -22.68,-27.18 l 0,-76.5 z"
         id="path3448"
         inkscape:connector-curvature="0" />
    </g>
    <g
       style="font-style:normal;font-variant:normal;font-weight:normal;font-stretch:normal;font-size:180px;line-height:100%;font-family:LilGrotesk;-inkscape-font-specification:'LilGrotesk, Normal';text-align:start;letter-spacing:0px;word-spacing:0px;writing-mode:lr-tb;text-anchor:start;fill:#000000;fill-opacity:1;stroke:none;stroke-width:1px;stroke-linecap:butt;stroke-linejoin:miter;stroke-opacity:1"
       id="text3335-1-0-1-1"
       transform="matrix(0.65123439,0,0,1.0123735,-115.78947,294.74017)">
      <path
         d="m 226.58,748.36218 22.14,0 48.78,-126 -27.18,0 -32.58,84.06 -32.58,-84.06 -27.36,0 48.78,126 z"
         id="path3451"
         inkscape:connector-curvature="0" />
    </g>
    <g
       style="font-style:normal;font-variant:normal;font-weight:normal;font-stretch:normal;font-size:180px;line-height:100%;font-family:LilGrotesk;-inkscape-font-specification:'LilGrotesk, Normal';text-align:start;letter-spacing:0px;word-spacing:0px;writing-mode:lr-tb;text-anchor:start;fill:#000000;fill-opacity:1;stroke:none;stroke-width:1px;stroke-linecap:butt;stroke-linejoin:miter;stroke-opacity:1"
       id="text3335-3-3-8-4"
       transform="matrix(0.4707292,0,0,1.0123735,-147.79955,294.74017)">
      <path
         d="m 479.58,622.36218 -26.46,0 -18.54,74.88 -26.64,-74.88 -22.32,0 -26.64,74.88 -18.54,-74.88 -26.46,0 31.32,126 22.5,0 28.98,-81.36 28.8,81.36 22.68,0 31.32,-126 z"
         id="path3454"
         inkscape:connector-curvature="0" />
    </g>
    <g
       style="font-style:normal;font-variant:normal;font-weight:normal;font-stretch:normal;font-size:180px;line-height:100%;font-family:LilGrotesk;-inkscape-font-specification:'LilGrotesk, Normal';text-align:start;letter-spacing:0px;word-spacing:0px;writing-mode:lr-tb;text-anchor:start;fill:#000000;fill-opacity:1;stroke:none;stroke-width:1px;stroke-linecap:butt;stroke-linejoin:miter;stroke-opacity:1"
       id="text3335-1-9-36-2-5"
       transform="matrix(0.52621004,0,0,1.0123735,-297.44549,294.74017)">
      <path
         d="m 597.3,748.36218 41.76,-52.02 42.3,52.02 32.04,0 -57.6,-71.1 44.64,-54.9 -32.22,0 -28.62,35.28 -28.62,-35.28 -32.22,0 44.28,54.36 -57.78,71.64 32.04,0 z"
         id="path3457"
         inkscape:connector-curvature="0" />
    </g>
    <g
       style="font-style:normal;font-variant:normal;font-weight:normal;font-stretch:normal;font-size:180px;line-height:100%;font-family:LilGrotesk;-inkscape-font-specification:'LilGrotesk, Normal';text-align:start;letter-spacing:0px;word-spacing:0px;writing-mode:lr-tb;text-anchor:start;fill:#000000;fill-opacity:1;stroke:none;stroke-width:1px;stroke-linecap:butt;stroke-linejoin:miter;stroke-opacity:1"
       id="text3335-1-9-3-0-1-2" />
    <g
       style="font-style:normal;font-variant:normal;font-weight:normal;font-stretch:normal;font-size:180px;line-height:100%;font-family:LilGrotesk;-inkscape-font-specification:'LilGrotesk, Normal';text-align:start;letter-spacing:0px;word-spacing:0px;writing-mode:lr-tb;text-anchor:start;fill:#000000;fill-opacity:1;stroke:none;stroke-width:1px;stroke-linecap:butt;stroke-linejoin:miter;stroke-opacity:1"
       id="text3335-4-6-2-6"
       transform="matrix(0.60148731,0,0,1.0123735,-14.20713,140.85939)">
      <path
         d="m 121.54,774.36218 -33.12,42.66 -33.12,-42.66 -31.68,0 52.02,66.96 0,59.04 25.56,0 0,-59.04 52.02,-66.96 -31.68,0 z"
         id="path3461"
         inkscape:connector-curvature="0" />
    </g>
    <g
       style="font-style:normal;font-variant:normal;font-weight:normal;font-stretch:normal;font-size:180px;line-height:100%;font-family:LilGrotesk;-inkscape-font-specification:'LilGrotesk, Normal';text-align:start;letter-spacing:0px;word-spacing:0px;writing-mode:lr-tb;text-anchor:start;fill:#000000;fill-opacity:1;stroke:none;stroke-width:1px;stroke-linecap:butt;stroke-linejoin:miter;stroke-opacity:1"
       id="text3335-1-0-1-1-0"
       transform="matrix(0.63780687,0,0,1.0123735,-112.94284,140.85939)">
      <path
         d="m 291.74,900.36218 0,-23.76 -66.42,0 73.98,-102.24 -105.84,0 0,23.76 57.78,0 -74.16,102.24 114.66,0 z"
         id="path3464"
         inkscape:connector-curvature="0" />
    </g>
  </g>
</svg>
