<?xml version="1.0" encoding="UTF-8" standalone="no"?>
<!-- Created with Inkscape (http://www.inkscape.org/) -->

<svg
   xmlns:dc="http://purl.org/dc/elements/1.1/"
   xmlns:cc="http://creativecommons.org/ns#"
   xmlns:rdf="http://www.w3.org/1999/02/22-rdf-syntax-ns#"
   xmlns:svg="http://www.w3.org/2000/svg"
   xmlns="http://www.w3.org/2000/svg"
   xmlns:sodipodi="http://sodipodi.sourceforge.net/DTD/sodipodi-0.dtd"
   xmlns:inkscape="http://www.inkscape.org/namespaces/inkscape"
   width="210mm"
   height="297mm"
   viewBox="0 0 744.09448819 1052.3622047"
   id="svg2"
   version="1.1"
   inkscape:version="0.91 r13725"
   sodipodi:docname="AllDigitsAsPaths.svg">
  <defs
     id="defs4" />
  <sodipodi:namedview
     id="base"
     pagecolor="#ffffff"
     bordercolor="#666666"
     borderopacity="1.0"
     inkscape:pageopacity="0.0"
     inkscape:pageshadow="2"
     inkscape:zoom="1"
     inkscape:cx="536.18898"
     inkscape:cy="777.68688"
     inkscape:document-units="px"
     inkscape:current-layer="layer1"
     showgrid="false"
     inkscape:window-width="1706"
     inkscape:window-height="1001"
     inkscape:window-x="147"
     inkscape:window-y="0"
     inkscape:window-maximized="0"
     showguides="true" />
  <metadata
     id="metadata7">
    <rdf:RDF>
      <cc:Work
         rdf:about="">
        <dc:format>image/svg+xml</dc:format>
        <dc:type
           rdf:resource="http://purl.org/dc/dcmitype/StillImage" />
        <dc:title />
      </cc:Work>
    </rdf:RDF>
  </metadata>
  <g
     inkscape:label="Layer 1"
     inkscape:groupmode="layer"
     id="layer1">
    <g
       style="font-style:normal;font-variant:normal;font-weight:normal;font-stretch:normal;font-size:180px;line-height:100%;font-family:LilGrotesk;-inkscape-font-specification:'LilGrotesk, Normal';text-align:start;letter-spacing:0px;word-spacing:0px;writing-mode:lr-tb;text-anchor:start;fill:#000000;fill-opacity:1;stroke:none;stroke-width:1px;stroke-linecap:butt;stroke-linejoin:miter;stroke-opacity:1"
       id="text3335"
       transform="matrix(1.0048048,0,0,1.0123735,-0.12646217,-1.9099973)">
      <path
         d="m 26.32,154.36221 77.58,0 0,-23.94 -26.28,0 0,-102.059997 -18.72,0 -31.32,12.96 0,29.16 24.48,-12.6 0,72.539997 -25.74,0 0,23.94 z"
         id="path3580"
         inkscape:connector-curvature="0" />
    </g>
    <g
       style="font-style:normal;font-variant:normal;font-weight:normal;font-stretch:normal;font-size:180px;line-height:100%;font-family:LilGrotesk;-inkscape-font-specification:'LilGrotesk, Normal';text-align:start;letter-spacing:0px;word-spacing:0px;writing-mode:lr-tb;text-anchor:start;fill:#000000;fill-opacity:1;stroke:none;stroke-width:1px;stroke-linecap:butt;stroke-linejoin:miter;stroke-opacity:1"
       id="text3335-1"
       transform="matrix(0.91172814,0,0,1.0037697,15.853626,-0.58189874)">
      <path
         d="m 179.6,154.3622 85.5,0 0,-24.84 -49.5,0 c 14.4,-13.32 30.78,-28.8 38.52,-39.600002 20.88,-29.16 -0.36,-62.64 -32.94,-62.64 -20.88,0 -37.98,15.3 -40.68,34.38 l 25.2,8.1 c 0.18,-10.44 6.66,-17.82 15.48,-17.82 12.96,0 20.34,12.06 12.06,23.58 -10.26,14.22 -37.98,37.800002 -53.64,54.000002 l 0,24.84 z"
         id="path3583"
         inkscape:connector-curvature="0" />
    </g>
    <g
       style="font-style:normal;font-variant:normal;font-weight:normal;font-stretch:normal;font-size:180px;line-height:100%;font-family:LilGrotesk;-inkscape-font-specification:'LilGrotesk, Normal';text-align:start;letter-spacing:0px;word-spacing:0px;writing-mode:lr-tb;text-anchor:start;fill:#000000;fill-opacity:1;stroke:none;stroke-width:1px;stroke-linecap:butt;stroke-linejoin:miter;stroke-opacity:1"
       id="text3335-3"
       transform="matrix(0.97758661,0,0,1.0023499,7.1140115,-0.36401064)">
      <path
         d="m 343.86,65.442228 c 0.36,-3.06 0.72,-13.86 10.98,-13.86 5.4,0 10.08,4.5 10.08,10.98 0,6.66 -3.42,12.78 -14.4,12.78 l -2.52,0 0,20.88 1.98,0 c 15.12,0 21.6,8.280002 21.6,18.000002 0,9.9 -6.48,16.74 -16.74,16.74 -8.46,0 -12.78,-5.4 -14.04,-12.78 l -23.4,10.08 c 2.7,12.6 17.64,26.64 37.44,26.64 25.38,0 42.3,-18.9 42.3,-40.68 0,-11.88 -4.14,-22.680002 -16.74,-30.240002 8.64,-5.94 10.26,-13.5 10.26,-21.42 0,-18.9 -15.84,-34.92 -35.82,-34.92 -20.7,0 -32.4,15.12 -33.48,33.84 l 22.5,3.96 z"
         id="path3586"
         inkscape:connector-curvature="0" />
    </g>
    <g
       style="font-style:normal;font-variant:normal;font-weight:normal;font-stretch:normal;font-size:180px;line-height:100%;font-family:LilGrotesk;-inkscape-font-specification:'LilGrotesk, Normal';text-align:start;letter-spacing:0px;word-spacing:0px;writing-mode:lr-tb;text-anchor:start;fill:#000000;fill-opacity:1;stroke:none;stroke-width:1px;stroke-linecap:butt;stroke-linejoin:miter;stroke-opacity:1"
       id="text3335-1-9"
       transform="matrix(0.83282859,0,0,1.0123734,77.52407,-1.909991)">
      <path
         d="m 544.74,154.3622 0,-24.3 12.6,0 0,-25.38 -12.6,0 0,-76.320002 -24.66,0 -56.34,80.820002 0,20.88 55.26,0 0,24.3 25.74,0 z m -49.14,-49.68 23.4,-35.100002 0,35.100002 -23.4,0 z"
         id="path3589"
         inkscape:connector-curvature="0" />
    </g>
    <g
       style="font-style:normal;font-variant:normal;font-weight:normal;font-stretch:normal;font-size:180px;line-height:100%;font-family:LilGrotesk;-inkscape-font-specification:'LilGrotesk, Normal';text-align:start;letter-spacing:0px;word-spacing:0px;writing-mode:lr-tb;text-anchor:start;fill:#000000;fill-opacity:1;stroke:none;stroke-width:1px;stroke-linecap:butt;stroke-linejoin:miter;stroke-opacity:1"
       id="text3335-1-9-3"
       transform="matrix(0.91560404,0,0,1.0072016,50.328687,-1.1163113)">
      <path
         d="m 637.2,52.122198 40.32,0 0,-23.76 -60.48,0 -16.2,52.74 12.42,20.880002 c 14.22,-9.000002 19.98,-9.360002 27.36,-8.280002 9,1.44 16.56,11.520002 14.94,21.780002 -1.8,10.98 -9.72,17.1 -20.7,15.3 -9.18,-1.44 -12.42,-5.4 -16.56,-14.94 l -21.96,11.88 c 3.96,12.06 16.74,23.58 34.38,26.64 25.92,4.14 46.44,-12.06 50.22,-35.1 3.78,-23.220002 -12.78,-45.360002 -36.36,-49.140002 -4.68,-0.72 -9,-0.54 -13.32,0.18 l 5.94,-18.18 z"
         id="path3592"
         inkscape:connector-curvature="0" />
    </g>
    <g
       style="font-style:normal;font-variant:normal;font-weight:normal;font-stretch:normal;font-size:180px;line-height:100%;font-family:LilGrotesk;-inkscape-font-specification:'LilGrotesk, Normal';text-align:start;letter-spacing:0px;word-spacing:0px;writing-mode:lr-tb;text-anchor:start;fill:#000000;fill-opacity:1;stroke:none;stroke-width:1px;stroke-linecap:butt;stroke-linejoin:miter;stroke-opacity:1"
       id="text3335-4"
       transform="matrix(0.96343224,0,0,1.0066632,1.0025548,-2.0194501)">
      <path
         d="m 100.66,176.36218 -29.34,0 -38.34,66.24 -0.36,0.54 -0.9,1.62 c -8.46,17.1 -4.14,37.26 10.26,49.14 1.08,0.9 2.34,1.62 3.42,2.52 2.7,1.8 5.76,3.24 9,4.5 18,6.12 38.88,-1.08 48.6,-18 10.98,-19.26 4.5,-43.56 -14.94,-54.72 -4.68,-2.7 -9.54,-4.32 -14.58,-4.86 l 27.18,-46.98 z m -40.14,99.9 c -7.02,-3.96 -9.72,-13.5 -5.58,-20.88 4.32,-7.38 12.96,-9.9 20.34,-5.76 7.02,4.14 9.54,13.68 5.4,20.88 -2.88,5.22 -8.1,7.92 -13.32,7.74 -2.16,-0.18 -3.96,-0.54 -5.58,-1.26 l -1.26,-0.72 z"
         id="path3595"
         inkscape:connector-curvature="0" />
    </g>
    <path
       style="font-style:normal;font-variant:normal;font-weight:normal;font-stretch:normal;font-size:medium;line-height:100%;font-family:LilGrotesk;-inkscape-font-specification:'LilGrotesk, Normal';text-align:start;letter-spacing:0px;word-spacing:0px;writing-mode:lr-tb;text-anchor:start;fill:#000000;fill-opacity:1;stroke:none;stroke-width:1px;stroke-linecap:butt;stroke-linejoin:miter;stroke-opacity:1"
       inkscape:connector-curvature="0"
       id="path3598"
       d="M 213.49931,221.45557 192.16015,302 l 28.82378,0 35.86504,-127.55906 -77.95276,0 0,24.96513 40.86843,0 z"
       sodipodi:nodetypes="cccccccc" />
    <g
       style="font-style:normal;font-variant:normal;font-weight:normal;font-stretch:normal;font-size:180px;line-height:100%;font-family:LilGrotesk;-inkscape-font-specification:'LilGrotesk, Normal';text-align:start;letter-spacing:0px;word-spacing:0px;writing-mode:lr-tb;text-anchor:start;fill:#000000;fill-opacity:1;stroke:none;stroke-width:1px;stroke-linecap:butt;stroke-linejoin:miter;stroke-opacity:1"
       id="text3335-3-3"
       transform="matrix(0.92146635,0,0,1.0016144,24.823419,-0.48908468)">
      <path
         d="m 387.42,235.94218 c 1.44,-1.62 2.7,-3.42 3.78,-5.22 10.26,-18 4.32,-39.6 -14.04,-50.22 -17.82,-10.26 -41.4,-3.78 -51.48,13.68 -8.1,14.04 -6.12,30.42 3.96,41.76 -3.06,2.52 -5.76,5.4 -7.74,8.46 -11.88,19.26 -5.04,42.66 15.84,53.64 19.8,10.26 45.72,3.96 57.06,-14.22 10.26,-16.38 6.66,-35.64 -7.38,-47.88 z m -39.42,-29.88 c 3.78,-6.48 10.44,-8.28 16.38,-4.86 5.76,3.24 7.92,11.52 4.5,17.64 -2.34,4.14 -5.58,6.12 -10.08,6.48 -3.24,-0.36 -4.14,-0.54 -6.3,-1.62 -5.76,-3.42 -7.92,-11.7 -4.5,-17.64 z m 25.02,65.16 c -4.68,7.56 -14.94,10.08 -23.4,5.76 -7.56,-3.96 -10.08,-13.14 -5.94,-19.98 3.24,-5.04 7.92,-7.38 14.76,-7.92 3.96,0.36 5.76,0.72 8.64,2.34 7.74,3.96 10.26,12.96 5.94,19.8 z"
         id="path3601"
         inkscape:connector-curvature="0" />
    </g>
    <g
       style="font-style:normal;font-variant:normal;font-weight:normal;font-stretch:normal;font-size:180px;line-height:100%;font-family:LilGrotesk;-inkscape-font-specification:'LilGrotesk, Normal';text-align:start;letter-spacing:0px;word-spacing:0px;writing-mode:lr-tb;text-anchor:start;fill:#000000;fill-opacity:1;stroke:none;stroke-width:1px;stroke-linecap:butt;stroke-linejoin:miter;stroke-opacity:1"
       id="text3335-1-9-36"
       transform="matrix(0.99656681,0,0,1.0057688,1.5804799,-1.744268)">
      <path
         d="m 533.94,232.52218 0.36,-0.54 c 10.44,-20.52 1.26,-45.9 -22.14,-54.36 -17.46,-5.94 -37.44,1.08 -46.62,17.46 -10.62,18.72 -4.5,41.94 14.4,52.74 4.14,2.34 8.46,3.96 12.96,4.68 l -28.8,49.86 29.34,0 39.24,-67.5 c 0.18,-0.54 0.54,-0.9 0.72,-1.26 l 0.54,-1.08 z m -27.72,-30.24 c 5.76,3.6 8.28,10.98 5.58,17.28 l -1.8,3.42 c -4.14,5.4 -11.34,6.84 -17.28,3.42 -6.3,-3.6 -8.64,-12.42 -4.86,-19.08 2.52,-4.32 6.84,-6.84 11.34,-6.84 2.52,0 4.68,0.54 6.66,1.62 l 0.36,0.18 z"
         id="path3604"
         inkscape:connector-curvature="0" />
    </g>
    <g
       style="font-style:normal;font-variant:normal;font-weight:normal;font-stretch:normal;font-size:180px;line-height:100%;font-family:LilGrotesk;-inkscape-font-specification:'LilGrotesk, Normal';text-align:start;letter-spacing:0px;word-spacing:0px;writing-mode:lr-tb;text-anchor:start;fill:#000000;fill-opacity:1;stroke:none;stroke-width:1px;stroke-linecap:butt;stroke-linejoin:miter;stroke-opacity:1"
       id="text3335-1-9-3-0"
       transform="matrix(0.83766125,0,0,0.99952245,97.773382,0.14482274)">
      <path
         d="m 648.9,303.26218 c 25.92,0 46.44,-22.5 46.44,-64.26 0,-41.94 -20.52,-63.36 -46.44,-63.36 -25.92,0 -46.62,21.42 -46.62,63.36 0,41.76 20.52,64.26 46.62,64.26 z m 0,-23.58 c -10.08,0 -20.88,-11.7 -20.88,-40.68 0,-28.8 10.44,-39.6 20.88,-39.6 10.26,0 20.7,10.8 20.7,39.6 0,28.98 -10.8,40.68 -20.7,40.68 z"
         id="path3607"
         inkscape:connector-curvature="0" />
    </g>
    <g
       style="font-style:normal;font-variant:normal;font-weight:normal;font-stretch:normal;font-size:180px;line-height:100%;font-family:LilGrotesk;-inkscape-font-specification:'LilGrotesk, Normal';text-align:start;letter-spacing:0px;word-spacing:0px;writing-mode:lr-tb;text-anchor:start;fill:#000000;fill-opacity:1;stroke:none;stroke-width:1px;stroke-linecap:butt;stroke-linejoin:miter;stroke-opacity:1"
       id="text3335-1-9-3-0-1-2" />
  </g>
</svg>
