<?xml version="1.0" encoding="UTF-8" standalone="no"?>
<!-- Created with Inkscape (http://www.inkscape.org/) -->

<svg
   xmlns:dc="http://purl.org/dc/elements/1.1/"
   xmlns:cc="http://creativecommons.org/ns#"
   xmlns:rdf="http://www.w3.org/1999/02/22-rdf-syntax-ns#"
   xmlns:svg="http://www.w3.org/2000/svg"
   xmlns="http://www.w3.org/2000/svg"
   xmlns:sodipodi="http://sodipodi.sourceforge.net/DTD/sodipodi-0.dtd"
   xmlns:inkscape="http://www.inkscape.org/namespaces/inkscape"
   width="297mm"
   height="420mm"
   viewBox="0 0 1052.3622 1488.189"
   id="svg2"
   version="1.1"
   inkscape:version="0.91 r13725"
   sodipodi:docname="Share-Bold-AllCharactersAsPathsPositioned.svg">
  <defs
     id="defs4" />
  <sodipodi:namedview
     id="base"
     pagecolor="#ffffff"
     bordercolor="#666666"
     borderopacity="1.0"
     inkscape:pageopacity="0.0"
     inkscape:pageshadow="2"
     inkscape:zoom="1"
     inkscape:cx="368.86219"
     inkscape:cy="321.09795"
     inkscape:document-units="px"
     inkscape:current-layer="layer1"
     showgrid="false"
     inkscape:window-width="1874"
     inkscape:window-height="1035"
     inkscape:window-x="1024"
     inkscape:window-y="23"
     inkscape:window-maximized="1" />
  <metadata
     id="metadata7">
    <rdf:RDF>
      <cc:Work
         rdf:about="">
        <dc:format>image/svg+xml</dc:format>
        <dc:type
           rdf:resource="http://purl.org/dc/dcmitype/StillImage" />
        <dc:title></dc:title>
      </cc:Work>
    </rdf:RDF>
  </metadata>
  <g
     inkscape:label="Layer 1"
     inkscape:groupmode="layer"
     id="layer1"
     transform="translate(0,435.82677)">
    <g
       transform="matrix(1.072182,0,0,0.98163589,-1.2410459e-6,0)"
       style="font-style:normal;font-variant:normal;font-weight:bold;font-stretch:normal;font-size:185.63626099px;line-height:100%;font-family:Share;-inkscape-font-specification:'Share, Bold';text-align:start;letter-spacing:0px;word-spacing:0px;writing-mode:lr-tb;text-anchor:start;fill:#000000;fill-opacity:1;stroke:none;stroke-width:1px;stroke-linecap:butt;stroke-linejoin:miter;stroke-opacity:1"
       id="text3340">
      <path
         d="m 66.086509,1072.0493 0,-20.9769 -19.686189,0 0,-108.96847 -24.680878,0 L -4.577636e-8,951.38575 l 0,22.64762 L 23.575805,964.75156 l 0,86.32084 -23.58455051,0 0,20.9769 z"
         id="path4342"
         inkscape:connector-curvature="0"
         sodipodi:nodetypes="cccccccccccc" />
    </g>
    <g
       transform="matrix(1.0899645,0,0,0.96574851,-93.244932,0)"
       style="font-style:normal;font-variant:normal;font-weight:bold;font-stretch:normal;font-size:186.29492188px;line-height:100%;font-family:Share;-inkscape-font-specification:'Share, Bold';text-align:start;letter-spacing:0px;word-spacing:0px;writing-mode:lr-tb;text-anchor:start;fill:#000000;fill-opacity:1;stroke:none;stroke-width:1px;stroke-linecap:butt;stroke-linejoin:miter;stroke-opacity:1"
       id="text3340-9">
      <path
         d="m 150.56552,1089.6857 0,-21.2377 -37.25898,0 23.28686,-31.8564 c 11.92288,-16.2076 13.41324,-22.728 13.41324,-40.05339 0,-25.33611 -7.4518,-38.93564 -37.44528,-38.93564 -8.94216,0 -21.610212,2.79442 -23.659456,3.16701 l 0,21.23762 c 5.775142,-1.30406 14.531006,-3.3533 21.051326,-3.3533 11.73658,0 15.46248,4.84366 15.46248,16.20765 0,13.22695 -0.74518,19.37465 -13.78583,35.95495 l -26.081285,35.396 0,23.4732 65.016925,0 z"
         id="path4345"
         inkscape:connector-curvature="0" />
    </g>
    <g
       transform="matrix(1.1145659,0,0,0.94443176,-186.48984,0)"
       style="font-style:normal;font-variant:normal;font-weight:bold;font-stretch:normal;font-size:188.11190796px;line-height:100%;font-family:Share;-inkscape-font-specification:'Share, Bold';text-align:start;letter-spacing:0px;word-spacing:0px;writing-mode:lr-tb;text-anchor:start;fill:#000000;fill-opacity:1;stroke:none;stroke-width:1px;stroke-linecap:butt;stroke-linejoin:miter;stroke-opacity:1"
       id="text3340-8">
      <path
         d="m 230.90243,1073.4605 c 0,-18.6231 -6.01958,-28.2168 -16.36574,-30.286 10.34616,-3.5742 14.1084,-15.2371 14.1084,-26.5238 0,-28.78113 -11.66294,-37.43427 -35.74127,-37.43427 -9.5937,0 -22.57343,2.82167 -24.64266,3.1979 l 0,20.88047 c 5.45525,-1.1287 13.92028,-3.198 22.19721,-3.198 9.40559,0 13.16783,5.2672 13.16783,15.9896 0,11.2867 -4.32657,17.8706 -15.04895,17.8706 l -12.6035,0 0,20.5042 14.48462,0 c 11.47483,0 15.23706,6.2077 15.23706,20.8804 0,11.6629 -5.83147,18.0588 -14.86084,18.0588 -8.27692,0 -18.9993,-2.2574 -23.51399,-3.1979 l 0,20.8804 c 1.69301,0.3762 17.3063,3.1979 26.52378,3.1979 20.88043,0 37.05805,-9.2175 37.05805,-40.8203 z"
         id="path4348"
         inkscape:connector-curvature="0" />
    </g>
    <g
       transform="matrix(1.0271529,0,0,1.0248051,-279.73477,0)"
       style="font-style:normal;font-variant:normal;font-weight:bold;font-stretch:normal;font-size:177.81646729px;line-height:100%;font-family:Share;-inkscape-font-specification:'Share, Bold';text-align:start;letter-spacing:0px;word-spacing:0px;writing-mode:lr-tb;text-anchor:start;fill:#000000;fill-opacity:1;stroke:none;stroke-width:1px;stroke-linecap:butt;stroke-linejoin:miter;stroke-opacity:1"
       id="text3340-9-4">
      <path
         d="m 341.33274,999.15077 0,-20.09326 -10.66899,0 0,-33.4295 -20.09326,0 -3.91196,33.4295 -11.73589,0 17.07038,-76.6389 -22.93832,0 -16.71475,74.32728 0,22.40488 34.31858,0 0,27.73933 24.00522,0 0,-27.73933 10.66899,0 z"
         id="path4351"
         inkscape:connector-curvature="0" />
    </g>
    <g
       transform="matrix(1.0994564,0,0,0.95741095,-372.97972,0)"
       style="font-style:normal;font-variant:normal;font-weight:bold;font-stretch:normal;font-size:187.91725159px;line-height:100%;font-family:Share;-inkscape-font-specification:'Share, Bold';text-align:start;letter-spacing:0px;word-spacing:0px;writing-mode:lr-tb;text-anchor:start;fill:#000000;fill-opacity:1;stroke:none;stroke-width:1px;stroke-linecap:butt;stroke-linejoin:miter;stroke-opacity:1"
       id="text3340-3">
      <path
         d="m 399.9374,987.17622 0,-21.23465 -58.8181,0 0,68.58983 21.7984,0 c 9.77169,0 15.59713,3.0066 15.59713,22.9259 0,13.1542 -4.69793,20.6709 -15.03338,20.6709 -10.33545,0 -20.85882,-2.443 -24.24133,-3.1946 l 0,21.0467 c 5.63752,1.1275 18.60381,3.1946 28.18759,3.1946 20.6709,0 36.26803,-9.5838 36.26803,-43.5968 0,-30.8184 -9.7717,-40.966 -36.64386,-40.966 l -0.93959,0 0,-27.43588 33.82511,0 z"
         id="path4354"
         inkscape:connector-curvature="0" />
    </g>
    <g
       transform="matrix(1.029714,0,0,1.0222563,-466.22465,0)"
       style="font-style:normal;font-variant:normal;font-weight:bold;font-stretch:normal;font-size:173.79089355px;line-height:100%;font-family:Share;-inkscape-font-specification:'Share, Bold';text-align:start;letter-spacing:0px;word-spacing:0px;writing-mode:lr-tb;text-anchor:start;fill:#000000;fill-opacity:1;stroke:none;stroke-width:1px;stroke-linecap:butt;stroke-linejoin:miter;stroke-opacity:1"
       id="text3340-9-1">
      <path
         d="m 521.5922,990.52119 c 0,-29.02308 -6.25647,-42.40498 -29.54445,-42.40498 -6.08268,0 -11.29641,1.9117 -15.81497,4.51856 1.04274,-22.41902 5.7351,-28.84928 18.76942,-28.84928 8.16817,0 14.42464,1.39032 18.9432,2.43307 l 0,-19.46458 c -3.30202,-0.86896 -12.86052,-2.08549 -18.24804,-2.08549 -28.6755,0 -42.92635,12.86052 -42.92635,61.52197 0,50.57314 11.64399,63.25984 33.54164,63.25984 18.94321,0 35.27955,-9.0371 35.27955,-38.92911 z m -33.71543,-23.63556 c 7.6468,0 10.60124,6.60405 10.60124,21.72386 0,17.20531 -3.12823,21.72391 -10.94882,21.72391 -7.99438,0 -11.64399,-3.9972 -11.64399,-40.49333 3.30202,-1.56412 7.47301,-2.95444 11.99157,-2.95444 z"
         id="path4357"
         inkscape:connector-curvature="0" />
    </g>
    <g
       transform="matrix(1.0892847,0,0,0.96635116,-559.46951,0)"
       style="font-style:normal;font-variant:normal;font-weight:bold;font-stretch:normal;font-size:188.57246399px;line-height:100%;font-family:Share;-inkscape-font-specification:'Share, Bold';text-align:start;letter-spacing:0px;word-spacing:0px;writing-mode:lr-tb;text-anchor:start;fill:#000000;fill-opacity:1;stroke:none;stroke-width:1px;stroke-linecap:butt;stroke-linejoin:miter;stroke-opacity:1"
       id="text3340-32">
      <path
         d="m 578.66933,980.76992 0,-23.76479 -65.0575,0 0,22.06298 42.002,0 -30.92588,109.93779 24.3755,0 z"
         id="path4360"
         inkscape:connector-curvature="0"
         sodipodi:nodetypes="cccccccc" />
    </g>
    <g
       transform="matrix(1.0046563,0,0,1.0477529,-652.71446,0)"
       style="font-style:normal;font-variant:normal;font-weight:bold;font-stretch:normal;font-size:169.56176758px;line-height:100%;font-family:Share;-inkscape-font-specification:'Share, Bold';text-align:start;letter-spacing:0px;word-spacing:0px;writing-mode:lr-tb;text-anchor:start;fill:#000000;fill-opacity:1;stroke:none;stroke-width:1px;stroke-linecap:butt;stroke-linejoin:miter;stroke-opacity:1"
       id="text3340-9-0">
      <path
         d="m 697.67529,969.13019 c 0,12.71714 -3.22167,16.78662 -12.71713,16.78662 -9.49546,0 -12.71713,-4.06948 -12.71713,-16.78662 0,-12.71713 1.35649,-15.9388 6.95203,-19.4996 17.12574,0 18.48223,6.10422 18.48223,19.4996 z m -2.03474,-53.58151 c 0,8.30852 -1.01737,13.7345 -5.7651,16.61705 -14.24319,0 -15.59968,-5.93466 -15.59968,-16.61705 0,-11.02152 3.73036,-14.75188 11.02151,-14.75188 8.30853,0 10.34327,3.73036 10.34327,14.75188 z m 24.58646,51.8859 c 0,-12.54757 -4.57817,-25.43427 -15.59968,-27.9777 9.49545,-4.4086 13.22581,-15.26055 13.22581,-22.38215 0,-26.6212 -12.71713,-34.42104 -32.89498,-34.42104 -20.17785,0 -32.89498,7.79984 -32.89498,34.42104 0,9.66502 4.91729,21.70391 12.71713,25.09514 -7.79984,2.88255 -15.091,9.83459 -15.091,25.26471 0,23.73864 9.66502,36.96442 35.26885,36.96442 25.60383,0 35.26885,-13.22578 35.26885,-36.96442 z"
         id="path4363"
         inkscape:connector-curvature="0" />
    </g>
    <g
       transform="matrix(1.029714,0,0,1.0222563,-745.95941,0)"
       style="font-style:normal;font-variant:normal;font-weight:bold;font-stretch:normal;font-size:173.79089355px;line-height:100%;font-family:Share;-inkscape-font-specification:'Share, Bold';text-align:start;letter-spacing:0px;word-spacing:0px;writing-mode:lr-tb;text-anchor:start;fill:#000000;fill-opacity:1;stroke:none;stroke-width:1px;stroke-linecap:butt;stroke-linejoin:miter;stroke-opacity:1"
       id="text3340-2">
      <path
         d="m 724.43359,943.59765 c 0,26.24242 6.25647,42.40498 29.54445,42.40498 6.08268,0 11.29641,-1.73791 15.81497,-4.51857 -0.86895,24.67834 -5.03993,28.84934 -16.68392,28.84934 -8.16818,0 -14.77223,-1.3904 -19.29079,-2.4331 l 0,19.4646 c 3.30202,0.8689 13.20811,2.0854 18.59562,2.0854 26.7638,0 40.84086,-9.0371 40.84086,-63.78121 0,-50.57315 -11.64399,-61.0006 -33.54164,-61.0006 -18.94321,0 -35.27955,8.51575 -35.27955,38.92916 z m 33.71543,23.63556 c -7.6468,0 -10.60124,-6.60406 -10.60124,-21.72386 0,-17.2053 3.64961,-21.72386 10.94882,-21.72386 7.82059,0 11.4702,1.56411 11.64399,40.49327 -3.30202,1.73791 -7.473,2.95445 -11.99157,2.95445 z"
         id="path4366"
         inkscape:connector-curvature="0" />
    </g>
    <g
       transform="matrix(1.0245525,0,0,1.0274063,-839.20436,0)"
       style="font-style:normal;font-variant:normal;font-weight:bold;font-stretch:normal;font-size:172.91975403px;line-height:100%;font-family:Share;-inkscape-font-specification:'Share, Bold';text-align:start;letter-spacing:0px;word-spacing:0px;writing-mode:lr-tb;text-anchor:start;fill:#000000;fill-opacity:1;stroke:none;stroke-width:1px;stroke-linecap:butt;stroke-linejoin:miter;stroke-opacity:1"
       id="text3340-9-8">
      <path
         d="m 865.26315,961.69321 c 0,36.83191 -0.8646,43.40289 -11.58563,43.40289 -10.72102,0 -11.58562,-6.57098 -11.58562,-43.40289 0,-35.79439 0.8646,-42.36534 11.58562,-42.36534 10.72103,0 11.58563,6.39803 11.58563,42.36534 z m 22.99832,-0.8646 c 0,-40.63614 -4.32299,-60.69483 -34.58395,-60.69483 -30.26095,0 -34.58395,20.05869 -34.58395,60.69483 0,42.36539 5.01468,63.46159 34.58395,63.46159 29.56928,0 34.58395,-21.0962 34.58395,-63.46159 z"
         id="path4369"
         inkscape:connector-curvature="0" />
    </g>
    <g
       transform="matrix(0.90270885,0,0,0.97676423,0,177.16532)"
       style="font-style:normal;font-variant:normal;font-weight:bold;font-stretch:normal;font-size:184.71499634px;line-height:100%;font-family:Share;-inkscape-font-specification:'Share, Bold';text-align:start;letter-spacing:0px;word-spacing:0px;writing-mode:lr-tb;text-anchor:start;fill:#000000;fill-opacity:1;stroke:none;stroke-width:1px;stroke-linecap:butt;stroke-linejoin:miter;stroke-opacity:1"
       id="text3340-4">
      <path
         d="m 78.503875,765.42301 -25.305955,0 0,93.09636 c 0,10.15933 -4.248445,15.70078 -13.853625,15.70078 -9.605179,0 -14.038339,-5.54145 -14.038339,-15.70078 l 0,-93.09636 -25.3059547792969,0 0,89.58678 c 0,30.66269 14.4077697792969,41.00673 39.3442937792969,41.00673 24.936525,0 39.15958,-10.34404 39.15958,-41.00673 l 0,-89.58678 z"
         id="path4372"
         inkscape:connector-curvature="0" />
    </g>
    <g
       transform="matrix(0.76824365,0,0,0.971938,-66.143376,177.16532)"
       style="font-style:normal;font-variant:normal;font-weight:bold;font-stretch:normal;font-size:187.48852539px;line-height:100%;font-family:Share;-inkscape-font-specification:'Share, Bold';text-align:start;letter-spacing:0px;word-spacing:0px;writing-mode:lr-tb;text-anchor:start;fill:#000000;fill-opacity:1;stroke:none;stroke-width:1px;stroke-linecap:butt;stroke-linejoin:miter;stroke-opacity:1"
       id="text3340-9-85">
      <path
         d="m 178.34123,769.22379 -27.7268,0 -17.83291,106.69486 -17.08296,-106.69486 -29.601687,0 23.645057,131.24197 44.76676,0 z"
         id="path4375"
         inkscape:connector-curvature="0"
         sodipodi:nodetypes="cccccccc" />
    </g>
    <g
       transform="matrix(0.69139628,0,0,0.95649735,-117.16276,177.16532)"
       style="font-style:normal;font-variant:normal;font-weight:bold;font-stretch:normal;font-size:190.51513672px;line-height:100%;font-family:Share;-inkscape-font-specification:'Share, Bold';text-align:start;letter-spacing:0px;word-spacing:0px;writing-mode:lr-tb;text-anchor:start;fill:#000000;fill-opacity:1;stroke:none;stroke-width:1px;stroke-linecap:butt;stroke-linejoin:miter;stroke-opacity:1"
       id="text3340-8-0">
      <path
         d="m 271.95533,781.6413 -24.42091,0 -2.44172,106.70259 -9.10975,-50.50063 -27.50413,0 -10.63387,50.50063 -2.25121,-106.70259 -26.13555,0 3.58482,133.36059 38.138,0 9.52575,-40.58914 8.00164,40.58914 39.66212,0 z"
         id="path4378"
         inkscape:connector-curvature="0"
         sodipodi:nodetypes="cccccccccccccc" />
    </g>
    <g
       transform="matrix(0.80512186,0,0,1.0248051,-219.26685,177.16533)"
       style="font-style:normal;font-variant:normal;font-weight:bold;font-stretch:normal;font-size:177.81646729px;line-height:100%;font-family:Share;-inkscape-font-specification:'Share, Bold';text-align:start;letter-spacing:0px;word-spacing:0px;writing-mode:lr-tb;text-anchor:start;fill:#000000;fill-opacity:1;stroke:none;stroke-width:1px;stroke-linecap:butt;stroke-linejoin:miter;stroke-opacity:1"
       id="text3340-9-4-7">
      <path
         d="m 360.3591,854.013 -30.94007,-64.72519 29.69535,-59.74634 -26.49465,0 -15.1144,36.80801 -14.58095,-36.80801 -27.0281,0 28.45063,59.92415 -32.00696,64.54738 26.49465,0 17.60383,-41.25342 16.35911,41.25342 27.56156,0 z"
         id="path4381"
         inkscape:connector-curvature="0" />
    </g>
    <g
       transform="matrix(0.73329226,0,0,0.96354607,-250.35621,177.16538)"
       style="font-style:normal;font-variant:normal;font-weight:bold;font-stretch:normal;font-size:189.1214447px;line-height:100%;font-family:Share;-inkscape-font-specification:'Share, Bold';text-align:start;letter-spacing:0px;word-spacing:0px;writing-mode:lr-tb;text-anchor:start;fill:#000000;fill-opacity:1;stroke:none;stroke-width:1px;stroke-linecap:butt;stroke-linejoin:miter;stroke-opacity:1"
       id="text3340-3-1">
      <path
         d="m 438.05501,775.92322 -26.66613,0 -20.99248,51.06279 -20.99248,-51.06279 -27.98997,0 34.79835,74.1356 0,58.24941 26.477,0 0,-58.24941 35.36571,-74.1356 z"
         id="path4384"
         inkscape:connector-curvature="0" />
    </g>
    <g
       transform="matrix(1.0137143,0,0,1.0353162,-464.84418,177.16539)"
       style="font-style:normal;font-variant:normal;font-weight:bold;font-stretch:normal;font-size:176.01116943px;line-height:100%;font-family:Share;-inkscape-font-specification:'Share, Bold';text-align:start;letter-spacing:0px;word-spacing:0px;writing-mode:lr-tb;text-anchor:start;fill:#000000;fill-opacity:1;stroke:none;stroke-width:1px;stroke-linecap:butt;stroke-linejoin:miter;stroke-opacity:1"
       id="text3340-9-1-6">
      <path
         d="m 528.25583,743.61242 0,-21.47771 -67.61926,0 0,20.94533 43.88873,0 -45.96989,80.78478 0,21.47771 69.90741,0 0,-20.94533 -46.00087,0 z"
         id="path4387"
         inkscape:connector-curvature="0"
         sodipodi:nodetypes="ccccccccccc" />
    </g>
    <g
       transform="matrix(0.83533327,0,0,0.98163586,3.1865435e-8,354.33067)"
       style="font-style:normal;font-variant:normal;font-weight:bold;font-stretch:normal;font-size:185.63626099px;line-height:100%;font-family:Share;-inkscape-font-specification:'Share, Bold';text-align:start;letter-spacing:0px;word-spacing:0px;writing-mode:lr-tb;text-anchor:start;fill:#000000;fill-opacity:1;stroke:none;stroke-width:1px;stroke-linecap:butt;stroke-linejoin:miter;stroke-opacity:1"
       id="text3340-4-8">
      <path
         d="m 84.835771,711.09009 -39.72616,-73.51196 38.797979,-56.43342 -28.587984,0 -29.887438,44.92397 0,-44.92397 -25.432168038146972,0 0,129.94538 25.432168038146972,0 0,-45.29525 3.712725,-5.75472 26.360349,51.04997 29.330529,0 z"
         id="path4390"
         inkscape:connector-curvature="0" />
    </g>
    <g
       transform="matrix(1.1116927,0,0,0.97193706,-95.713173,354.3307)"
       style="font-style:normal;font-variant:normal;font-weight:bold;font-stretch:normal;font-size:187.4887085px;line-height:100%;font-family:Share;-inkscape-font-specification:'Share, Bold';text-align:start;letter-spacing:0px;word-spacing:0px;writing-mode:lr-tb;text-anchor:start;fill:#000000;fill-opacity:1;stroke:none;stroke-width:1px;stroke-linecap:butt;stroke-linejoin:miter;stroke-opacity:1"
       id="text3340-9-85-5">
      <path
         d="m 149.84295,718.18591 0,-21.74869 -39.85927,0 0,-109.4934 -23.88689,0 0,131.24209 z"
         id="path4393"
         inkscape:connector-curvature="0"
         sodipodi:nodetypes="ccccccc" />
    </g>
    <g
       transform="matrix(0.70716957,0,0,0.95649734,-119.83568,354.33072)"
       style="font-style:normal;font-variant:normal;font-weight:bold;font-stretch:normal;font-size:190.51513672px;line-height:100%;font-family:Share;-inkscape-font-specification:'Share, Bold';text-align:start;letter-spacing:0px;word-spacing:0px;writing-mode:lr-tb;text-anchor:start;fill:#000000;fill-opacity:1;stroke:none;stroke-width:1px;stroke-linecap:butt;stroke-linejoin:miter;stroke-opacity:1"
       id="text3340-8-0-7">
      <path
         d="m 269.66915,729.77881 0,-133.3606 -40.74069,0 -8.60273,47.06665 -8.41221,-47.06665 -42.45533,0 0,133.3606 26.07103,0 0,-107.84568 14.31818,63.07462 19.81357,0 13.55613,-63.07462 0,107.84568 z"
         id="path4396"
         inkscape:connector-curvature="0"
         sodipodi:nodetypes="cccccccccccccc" />
    </g>
    <g
       transform="matrix(0.88171522,0,0,1.0248051,-240.12627,354.3307)"
       style="font-style:normal;font-variant:normal;font-weight:bold;font-stretch:normal;font-size:177.81646729px;line-height:100%;font-family:Share;-inkscape-font-specification:'Share, Bold';text-align:start;letter-spacing:0px;word-spacing:0px;writing-mode:lr-tb;text-anchor:start;fill:#000000;fill-opacity:1;stroke:none;stroke-width:1px;stroke-linecap:butt;stroke-linejoin:miter;stroke-opacity:1"
       id="text3340-9-4-7-7">
      <path
         d="m 352.71299,681.13586 0,-124.47152 -21.16016,0 0,101.88883 -23.82741,-101.88883 -35.38548,0 0,124.47152 21.5158,0 0,-99.93285 23.47177,99.93285 35.38548,0 z"
         id="path4399"
         inkscape:connector-curvature="0" />
    </g>
    <g
       transform="matrix(0.81202497,0,0,0.95006922,-273.35902,354.33072)"
       style="font-style:normal;font-variant:normal;font-weight:bold;font-stretch:normal;font-size:186.47625732px;line-height:100%;font-family:Share;-inkscape-font-specification:'Share, Bold';text-align:start;letter-spacing:0px;word-spacing:0px;writing-mode:lr-tb;text-anchor:start;fill:#000000;fill-opacity:1;stroke:none;stroke-width:1px;stroke-linecap:butt;stroke-linejoin:miter;stroke-opacity:1"
       id="text3340-3-1-2">
      <path
         d="m 397.98938,667.02557 c 0,37.6682 -4.47543,47.55144 -17.71524,47.55144 -13.23982,0 -17.71525,-9.88324 -17.71525,-47.55144 0,-38.22764 4.47543,-46.43259 17.71525,-46.43259 13.23981,0 17.71524,8.20495 17.71524,46.43259 z m 25.9202,-0.93239 c 0,-43.82192 -7.832,-65.63964 -43.63544,-65.63964 -35.80344,0 -43.63545,21.81772 -43.63545,65.63964 0,45.68669 6.71315,68.62327 43.63545,68.62327 36.9223,0 43.63544,-22.93658 43.63544,-68.62327 z"
         id="path4402"
         inkscape:connector-curvature="0" />
    </g>
    <g
       transform="matrix(0.97708114,0,0,1.0279994,-444.87941,354.33173)"
       style="font-style:normal;font-variant:normal;font-weight:bold;font-stretch:normal;font-size:174.76725769px;line-height:100%;font-family:Share;-inkscape-font-specification:'Share, Bold';text-align:start;letter-spacing:0px;word-spacing:0px;writing-mode:lr-tb;text-anchor:start;fill:#000000;fill-opacity:1;stroke:none;stroke-width:1px;stroke-linecap:butt;stroke-linejoin:miter;stroke-opacity:1"
       id="text3340-9-1-6-1">
      <path
         d="m 503.55046,596.87776 c 0,11.88417 -5.06825,19.39917 -13.28231,19.39917 l -11.01033,0 0,-39.32264 c 0,0 3.84488,-1.0486 11.35987,-1.0486 9.96173,0 12.93277,7.34022 12.93277,20.97207 z m 24.29265,-1.22337 c 0,-26.04032 -8.73836,-40.72077 -40.37123,-40.72077 -14.50569,0 -32.15718,1.74767 -32.15718,1.74767 l 0,122.33708 23.94312,0 0,-42.11891 9.96173,0 c 25.34125,0 38.62356,-10.48603 38.62356,-41.24507 z"
         id="path4405"
         inkscape:connector-curvature="0" />
    </g>
    <g
       transform="matrix(0.94886345,0,0,1.0536393,-619.92981,354.33067)"
       style="font-style:normal;font-variant:normal;font-weight:bold;font-stretch:normal;font-size:170.51437378px;line-height:100%;font-family:Share;-inkscape-font-specification:'Share, Bold';text-align:start;letter-spacing:0px;word-spacing:0px;writing-mode:lr-tb;text-anchor:start;fill:#000000;fill-opacity:1;stroke:none;stroke-width:1px;stroke-linecap:butt;stroke-linejoin:miter;stroke-opacity:1"
       id="text3340-9-0-2-8">
      <path
         d="m 722.90919,579.28471 c 0,-25.40664 -8.69623,-37.85419 -38.19522,-37.85419 -14.15269,0 -31.37464,1.70515 -31.37464,1.70515 l 0,119.36006 23.36047,0 0,-45.0158 6.82057,0 18.07452,45.0158 26.42973,0 -21.31429,-48.93763 c 10.06034,-5.11543 16.19886,-15.51681 16.19886,-34.27339 z m -23.7015,1.1936 c 0,11.08344 -4.7744,16.88093 -11.76549,16.88093 l -10.7424,0 0,-34.44391 c 0,0 5.28594,-1.02308 10.40137,-1.02308 9.71932,0 12.10652,5.28594 12.10652,18.58606 z"
         id="path4411"
         inkscape:connector-curvature="0" />
    </g>
    <g
       transform="matrix(1.0729004,0,0,1.0251158,-779.41924,354.33071)"
       style="font-style:normal;font-variant:normal;font-weight:bold;font-stretch:normal;font-size:174.27702332px;line-height:100%;font-family:Share;-inkscape-font-specification:'Share, Bold';text-align:start;letter-spacing:0px;word-spacing:0px;writing-mode:lr-tb;text-anchor:start;fill:#000000;fill-opacity:1;stroke:none;stroke-width:1px;stroke-linecap:butt;stroke-linejoin:miter;stroke-opacity:1"
       id="text3340-2-2-6">
      <path
         d="m 792.51101,643.45985 c 0,-25.96727 -11.32801,-34.50685 -28.0586,-37.99239 -10.97946,-2.2656 -13.76789,-4.70548 -13.76789,-15.85921 0,-8.88813 5.57686,-12.54794 15.51066,-12.54794 6.09969,0 17.4277,1.21994 23.35312,2.61415 l 0,-20.56469 c -5.05404,-1.39421 -15.1621,-2.61415 -21.61035,-2.61415 -26.66439,0 -41.47794,9.23668 -41.47794,35.02968 0,20.39041 7.66819,31.02131 27.01294,35.02968 9.41096,1.91705 14.81355,5.92542 14.81355,18.64764 0,11.15373 -6.97108,15.1621 -17.77626,15.1621 -6.7968,0 -17.60198,-1.39421 -23.00456,-2.78843 l 0,20.73897 c 5.92541,1.56849 17.07914,2.61415 24.74733,2.61415 23.17885,0 40.258,-4.70548 40.258,-37.46956 z"
         id="path4414"
         inkscape:connector-curvature="0" />
    </g>
    <g
       transform="matrix(0.95213244,0,0,1.0405449,-789.85887,354.33066)"
       style="font-style:normal;font-variant:normal;font-weight:bold;font-stretch:normal;font-size:175.1267395px;line-height:100%;font-family:Share;-inkscape-font-specification:'Share, Bold';text-align:start;letter-spacing:0px;word-spacing:0px;writing-mode:lr-tb;text-anchor:start;fill:#000000;fill-opacity:1;stroke:none;stroke-width:1px;stroke-linecap:butt;stroke-linejoin:miter;stroke-opacity:1"
       id="text3340-9-8-1-6">
      <path
         d="m 903.99715,569.43432 0,-21.19034 -74.42887,0 0,21.19034 25.21825,0 0,101.39838 23.99237,0 0,-101.39838 25.21825,0 z"
         id="path4417"
         inkscape:connector-curvature="0" />
    </g>
    <g
       transform="matrix(0.7412569,0,0,0.98163586,0,531.49606)"
       style="font-style:normal;font-variant:normal;font-weight:bold;font-stretch:normal;font-size:185.63626099px;line-height:100%;font-family:Share;-inkscape-font-specification:'Share, Bold';text-align:start;letter-spacing:0px;word-spacing:0px;writing-mode:lr-tb;text-anchor:start;fill:#000000;fill-opacity:1;stroke:none;stroke-width:1px;stroke-linecap:butt;stroke-linejoin:miter;stroke-opacity:1"
       id="text3340-4-8-1">
      <path
         d="m 56.705483,478.44656 -17.251383,0 8.440055,-55.33335 z m 38.897191,52.16379 -28.402348,-129.94538 -37.498524,0 L -7.6293945e-8,530.61035 26.545985,530.61035 l 5.940361,-30.25871 31.001255,0 5.940361,30.25871 z"
         id="path4420"
         inkscape:connector-curvature="0"
         sodipodi:nodetypes="ccccccccccccc" />
    </g>
    <g
       transform="matrix(0.90711932,0,0,0.95967668,-77.114873,531.49608)"
       style="font-style:normal;font-variant:normal;font-weight:bold;font-stretch:normal;font-size:185.12365723px;line-height:100%;font-family:Share;-inkscape-font-specification:'Share, Bold';text-align:start;letter-spacing:0px;word-spacing:0px;writing-mode:lr-tb;text-anchor:start;fill:#000000;fill-opacity:1;stroke:none;stroke-width:1px;stroke-linecap:butt;stroke-linejoin:miter;stroke-opacity:1"
       id="text3340-9-85-5-7">
      <path
         d="m 137.40072,501.46911 c 0,11.84791 -3.51735,19.06774 -13.69915,19.06774 -6.84957,0 -13.3289,-0.55538 -13.3289,-0.55538 l 0,-36.65448 11.10742,0 c 8.33056,0 15.92063,4.07272 15.92063,18.14212 z m -2.77685,-54.7966 c 0,11.29254 -4.07272,15.92063 -14.43965,15.92063 l -9.81155,0 0,-29.99003 c 0,0 6.2942,-0.7405 12.40328,-0.7405 7.40495,0 11.84792,5.55371 11.84792,14.8099 z m 28.50904,54.61147 c 0,-19.99335 -10.1818,-28.87929 -19.99336,-29.99003 7.96032,-2.22148 16.47601,-8.70081 16.47601,-26.28756 0,-24.80657 -10.73717,-35.17349 -40.91233,-35.17349 -12.21816,0 -33.692503,1.66611 -33.692503,1.66611 l 0,129.58656 c 0,0 21.104093,1.66611 36.654483,1.66611 23.51071,0 41.4677,-7.03469 41.4677,-41.4677 z"
         id="path4423"
         inkscape:connector-curvature="0" />
    </g>
    <g
       transform="matrix(1.0952552,0,0,0.94707347,-183.77135,531.4972)"
       style="font-style:normal;font-variant:normal;font-weight:bold;font-stretch:normal;font-size:188.63809204px;line-height:100%;font-family:Share;-inkscape-font-specification:'Share, Bold';text-align:start;letter-spacing:0px;word-spacing:0px;writing-mode:lr-tb;text-anchor:start;fill:#000000;fill-opacity:1;stroke:none;stroke-width:1px;stroke-linecap:butt;stroke-linejoin:miter;stroke-opacity:1"
       id="text3340-8-0-7-5">
      <path
         d="m 232.49147,524.50703 c -4.71595,1.13183 -15.09104,2.82958 -22.8252,2.82958 -11.50693,0 -15.65697,-6.4137 -15.65697,-45.46178 0,-39.04809 4.71596,-43.95268 15.65697,-43.95268 6.79097,0 16.60015,1.32047 22.8252,2.82957 l 0,-22.82521 c -2.82957,-0.94319 -15.27968,-2.64093 -20.37291,-2.64093 -28.86163,0 -44.32995,7.9228 -44.32995,65.26878 0,57.34598 13.01603,69.41882 41.87766,69.41882 6.22505,0 18.67517,-1.69775 22.8252,-2.82957 l 0,-22.63658 z"
         id="path4426"
         inkscape:connector-curvature="0" />
    </g>
    <g
       transform="matrix(0.94879942,0,0,1.0104715,-254.78188,531.49604)"
       style="font-style:normal;font-variant:normal;font-weight:bold;font-stretch:normal;font-size:175.32940674px;line-height:100%;font-family:Share;-inkscape-font-specification:'Share, Bold';text-align:start;letter-spacing:0px;word-spacing:0px;writing-mode:lr-tb;text-anchor:start;fill:#000000;fill-opacity:1;stroke:none;stroke-width:1px;stroke-linecap:butt;stroke-linejoin:miter;stroke-opacity:1"
       id="text3340-9-4-7-7-1">
      <path
         d="m 318.85035,451.64854 c 0,33.66325 -4.73389,42.60504 -15.60432,42.60504 -7.36383,0 -10.69509,-0.70131 -10.69509,-0.70131 l 0,-82.40482 c 0,0 4.38323,-0.70132 10.87042,-0.70132 10.51977,0 15.42899,3.50659 15.42899,41.20241 z m 24.37079,-1.22731 c 0,-51.72217 -15.42899,-61.18996 -43.65703,-61.18996 -9.81844,0 -31.0333,1.75329 -31.0333,1.75329 l 0,122.73059 c 0,0 20.68887,1.75329 33.13726,1.75329 27.17606,0 41.55307,-12.79904 41.55307,-65.04721 z"
         id="path4429"
         inkscape:connector-curvature="0" />
    </g>
    <g
       transform="matrix(1.0466827,0,0,0.96354607,-3.0213647,0)"
       style="font-style:normal;font-variant:normal;font-weight:bold;font-stretch:normal;font-size:189.1214447px;line-height:100%;font-family:Share;-inkscape-font-specification:'Share, Bold';text-align:start;letter-spacing:0px;word-spacing:0px;writing-mode:lr-tb;text-anchor:start;fill:#000000;fill-opacity:1;stroke:none;stroke-width:1px;stroke-linecap:butt;stroke-linejoin:miter;stroke-opacity:1"
       id="text3340-3-1-2-4">
      <path
         d="m 70.59208,1092.1763 0,-20.4251 -43.70664,0 0,-37.8243 38.97861,0 0,-20.236 -38.97861,0 0,-33.47447 43.70664,0 0,-20.42511 -67.70547,0 0,132.38498 z"
         id="path4432"
         inkscape:connector-curvature="0"
         sodipodi:nodetypes="ccccccccccccc" />
    </g>
    <g
       transform="matrix(1.1246452,0,0,1.0353162,-515.71213,531.49705)"
       style="font-style:normal;font-variant:normal;font-weight:bold;font-stretch:normal;font-size:176.01116943px;line-height:100%;font-family:Share;-inkscape-font-specification:'Share, Bold';text-align:start;letter-spacing:0px;word-spacing:0px;writing-mode:lr-tb;text-anchor:start;fill:#000000;fill-opacity:1;stroke:none;stroke-width:1px;stroke-linecap:butt;stroke-linejoin:miter;stroke-opacity:1"
       id="text3340-9-1-6-1-6">
      <path
         d="m 521.5674,398.89904 0,-19.0092 -63.012,0 0,123.20782 22.33519,0 0,-52.27532 36.27653,0 0,-19.00921 -36.27653,0 0,-32.91409 z"
         id="path4435"
         inkscape:connector-curvature="0"
         sodipodi:nodetypes="ccccccccccc" />
    </g>
    <g
       transform="matrix(0.93976381,0,0,0.95416124,-476.58517,531.49725)"
       style="font-style:normal;font-variant:normal;font-weight:bold;font-stretch:normal;font-size:186.19374084px;line-height:100%;font-family:Share;-inkscape-font-specification:'Share, Bold';text-align:start;letter-spacing:0px;word-spacing:0px;writing-mode:lr-tb;text-anchor:start;fill:#000000;fill-opacity:1;stroke:none;stroke-width:1px;stroke-linecap:butt;stroke-linejoin:miter;stroke-opacity:1"
       id="text3340-32-5-4-3">
      <path
         d="m 582.54139,471.96886 -36.68016,0 0,21.97087 11.9164,0 0,29.41861 c -2.42052,0.18619 -5.02723,0.18619 -7.82014,0.18619 -13.03356,0 -16.94363,-7.82014 -16.94363,-45.24508 0,-36.86636 4.46865,-43.75553 20.10892,-43.75553 8.00633,0 17.68841,1.30336 25.50855,2.79291 l 0,-21.97086 c -7.63395,-1.67575 -17.50222,-3.1653 -23.64661,-3.1653 -30.90816,0 -47.85179,9.86827 -47.85179,64.79543 0,55.48573 11.9164,68.89168 43.38314,68.89168 10.05446,0 22.15706,-1.48955 32.02532,-3.35149 l 0,-70.56743 z"
         id="path4438"
         inkscape:connector-curvature="0" />
    </g>
    <g
       transform="matrix(0.95968614,0,0,1.0611386,-631.46337,531.49802)"
       style="font-style:normal;font-variant:normal;font-weight:bold;font-stretch:normal;font-size:171.72801208px;line-height:100%;font-family:Share;-inkscape-font-specification:'Share, Bold';text-align:start;letter-spacing:0px;word-spacing:0px;writing-mode:lr-tb;text-anchor:start;fill:#000000;fill-opacity:1;stroke:none;stroke-width:1px;stroke-linecap:butt;stroke-linejoin:miter;stroke-opacity:1"
       id="text3340-9-0-2-8-4">
      <path
         d="m 731.83251,490.85406 0,-120.2096 -23.52674,0 0,49.62939 -26.78957,0 0,-49.62939 -23.52673,0 0,120.2096 23.52673,0 0,-51.00321 26.78957,0 0,51.00321 23.52674,0 z"
         id="path4441"
         inkscape:connector-curvature="0" />
    </g>
    <g
       transform="matrix(1.0174589,0,0,1.0353162,-735.86813,531.49705)"
       style="font-style:normal;font-variant:normal;font-weight:bold;font-stretch:normal;font-size:176.01116943px;line-height:100%;font-family:Share;-inkscape-font-specification:'Share, Bold';text-align:start;letter-spacing:0px;word-spacing:0px;writing-mode:lr-tb;text-anchor:start;fill:#000000;fill-opacity:1;stroke:none;stroke-width:1px;stroke-linecap:butt;stroke-linejoin:miter;stroke-opacity:1"
       id="text3340-2-2-6-8">
      <path
         d="m 782.44374,503.09766 0,-18.65719 -12.32078,0 0,-85.89345 12.32078,0 0,-18.65718 -48.75509,0 0,18.65718 12.32078,0 0,85.89345 -12.32078,0 0,18.65719 48.75509,0 z"
         id="path4444"
         inkscape:connector-curvature="0" />
    </g>
    <g
       transform="matrix(1.0156547,0,0,1.0331783,-829.5034,531.49985)"
       style="font-style:normal;font-variant:normal;font-weight:bold;font-stretch:normal;font-size:173.89122009px;line-height:100%;font-family:Share;-inkscape-font-specification:'Share, Bold';text-align:start;letter-spacing:0px;word-spacing:0px;writing-mode:lr-tb;text-anchor:start;fill:#000000;fill-opacity:1;stroke:none;stroke-width:1px;stroke-linecap:butt;stroke-linejoin:miter;stroke-opacity:1"
       id="text3340-9-8-1-6-6">
      <path
         d="m 879.51439,457.01146 0,-76.33825 -48.51565,0 0,20.51916 24.69256,0 0,57.03632 c 0,18.08469 -2.60837,24.51867 -13.56352,24.51867 -5.56452,0 -13.56351,-0.86946 -18.43247,-1.73892 l 0,20.69306 c 5.56452,1.21724 15.47632,2.43448 21.21473,2.43448 27.12703,0 34.60435,-11.12904 34.60435,-47.12452 z"
         id="path4447"
         inkscape:connector-curvature="0" />
    </g>
    <g
       style="font-style:normal;font-weight:normal;font-size:40px;line-height:125%;font-family:Sans;letter-spacing:0px;word-spacing:0px;fill:#000000;fill-opacity:1;stroke:none;stroke-width:1px;stroke-linecap:butt;stroke-linejoin:miter;stroke-opacity:1"
       id="text4337" />
    <g
       id="g4518"
       transform="matrix(1.0599157,0,0,1,-563.34102,354.33073)">
      <g
         id="text3340-3-1-2-0"
         style="font-style:normal;font-variant:normal;font-weight:bold;font-stretch:normal;font-size:186.47625732px;line-height:100%;font-family:Share;-inkscape-font-specification:'Share, Bold';text-align:start;letter-spacing:0px;word-spacing:0px;writing-mode:lr-tb;text-anchor:start;fill:#000000;fill-opacity:1;stroke:none;stroke-width:1px;stroke-linecap:butt;stroke-linejoin:miter;stroke-opacity:1"
         transform="matrix(0.74675677,0,0,0.95006922,280.10884,-4.6984414e-6)">
        <path
           inkscape:connector-curvature="0"
           id="path4402-2"
           d="m 397.98938,667.02557 c 0,37.6682 -4.47543,47.55144 -17.71524,47.55144 -13.23982,0 -17.71525,-9.88324 -17.71525,-47.55144 0,-38.22764 4.47543,-46.43259 17.71525,-46.43259 13.23981,0 17.71524,8.20495 17.71524,46.43259 z m 25.9202,-0.93239 c 0,-43.82192 -7.832,-65.63964 -43.63544,-65.63964 -35.80344,0 -43.63545,21.81772 -43.63545,65.63964 0,45.68669 6.71315,68.62327 43.63545,68.62327 36.9223,0 43.63544,-22.93658 43.63544,-68.62327 z" />
      </g>
      <path
         transform="matrix(0.64423991,-0.76482347,0.75850424,0.6516681,0,0)"
         style="fill:#000000;fill-opacity:1;fill-rule:evenodd;stroke:#000000;stroke-width:0.77455032px;stroke-linecap:butt;stroke-linejoin:miter;stroke-opacity:1"
         d="m -146.57162,861.24078 16.93915,0 0,37.0104 -16.93915,0 z"
         id="rect4508"
         inkscape:connector-curvature="0" />
    </g>
  </g>
</svg>
